D:\school\WTK\thesis\model\3dpredictsim\Results\Batchsim_tmt_linear_v2\Pog_s1_tmt_bCst_d00_k1000_ig24_act_GRF.mot
nRows=25
nColumns=19

name D:\school\WTK\thesis\model\3dpredictsim\Results\Batchsim_tmt_linear_v2\Pog_s1_tmt_bCst_d00_k1000_ig24_act_GRF.mot
datacolumns 19
datarows 25
range 0.0000000000 0.3175825668
endheader
time 	ground_force_vx	ground_force_vy	ground_force_vz	ground_force_px	ground_force_py	ground_force_pz	1_ground_force_vx	1_ground_force_vy	1_ground_force_vz	1_ground_force_px	1_ground_force_py	1_ground_force_pz	ground_torque_x	ground_torque_y	ground_torque_z	1_ground_torque_x	1_ground_torque_y	1_ground_torque_z
        0.0000000000	      -27.7341561592	       21.6824902679	        2.1926151057	        0.2361573533	        0.0000000000	        0.0533729772	       84.1092390580	      344.7875938063	        3.7305778016	       -0.3801036755	        0.0000000000	       -0.0432162148	        0.0000000000	        0.0000000000	        0.0000000000	        0.0000000000	        0.0000000000	        0.0000000000	
        0.0132326070	     -121.4132798101	      116.5344093907	        9.6006126518	        0.2444917123	        0.0000000000	        0.0526685961	       30.7285160189	      222.7590841728	       -9.3513405577	       -0.3395281584	        0.0000000000	       -0.0399208162	        0.0000000000	        0.0000000000	        0.0000000000	        0.0000000000	        0.0000000000	        0.0000000000	
        0.0264652139	      -89.4058393589	      367.4025570005	       -1.2141788091	        0.2501554401	        0.0000000000	        0.0520948244	       25.9732805608	      192.7594681115	       -9.2518793556	       -0.3384379337	        0.0000000000	       -0.0395199029	        0.0000000000	        0.0000000000	        0.0000000000	        0.0000000000	        0.0000000000	        0.0000000000	
        0.0396978209	     -110.4234749838	      619.2528929322	      -10.9744633401	        0.2530074494	        0.0000000000	        0.0521450641	       24.6302509051	      151.1500052628	      -11.1353649650	       -0.3378850944	        0.0000000000	       -0.0397613605	        0.0000000000	        0.0000000000	        0.0000000000	        0.0000000000	        0.0000000000	        0.0000000000	
        0.0529304278	     -172.7447007673	      846.1802789466	      -19.4162411670	        0.2624969619	        0.0000000000	        0.0540829355	       18.4773913279	       98.5627645383	      -13.4858385925	       -0.3372960629	        0.0000000000	       -0.0402411054	        0.0000000000	        0.0000000000	        0.0000000000	        0.0000000000	        0.0000000000	        0.0000000000	
        0.0661630348	     -213.2709400100	      972.0315963578	      -22.9074007399	        0.2727796903	        0.0000000000	        0.0563169313	        2.2768734586	       38.1689142034	       -7.4448935028	       -0.3377306455	        0.0000000000	       -0.0403970460	        0.0000000000	        0.0000000000	        0.0000000000	        0.0000000000	        0.0000000000	        0.0000000000	
        0.0793956417	     -203.6676903157	      950.8168096115	      -22.0696326541	        0.2797004404	        0.0000000000	        0.0576466832	        0.4687674175	       -0.4549098896	       -0.0069989619	        0.0000000000	        0.0000000000	        0.0000000000	        0.0000000000	        0.0000000000	        0.0000000000	        0.0000000000	        0.0000000000	        0.0000000000	
        0.0926282487	     -172.7589369956	      862.8279934567	      -19.4046075064	        0.2848160144	        0.0000000000	        0.0585167686	        0.4422524607	       -0.3341331262	       -0.0369062977	        0.0000000000	        0.0000000000	        0.0000000000	        0.0000000000	        0.0000000000	        0.0000000000	        0.0000000000	        0.0000000000	        0.0000000000	
        0.1058608556	     -149.6404258639	      783.5095215434	      -16.4770768453	        0.2889853926	        0.0000000000	        0.0591055054	       -4.6207719918	        2.9929897501	        0.4121537018	        0.0000000000	        0.0000000000	        0.0000000000	        0.0000000000	        0.0000000000	        0.0000000000	        0.0000000000	        0.0000000000	        0.0000000000	
        0.1190934626	     -130.3177042440	      737.8624821828	      -14.5723144792	        0.2930428467	        0.0000000000	        0.0594650657	       -3.3497283778	        1.9377732707	        0.2880771038	        0.0000000000	        0.0000000000	        0.0000000000	        0.0000000000	        0.0000000000	        0.0000000000	        0.0000000000	        0.0000000000	        0.0000000000	
        0.1323260695	     -116.8861802044	      715.4933412335	      -14.5721927850	        0.2982270637	        0.0000000000	        0.0597494020	       -2.6482773185	        1.4070390055	        0.2077446579	        0.0000000000	        0.0000000000	        0.0000000000	        0.0000000000	        0.0000000000	        0.0000000000	        0.0000000000	        0.0000000000	        0.0000000000	
        0.1455586765	     -107.1843833349	      700.4021701065	      -14.4479594635	        0.3044075837	        0.0000000000	        0.0595905645	       -2.0045067423	        1.0000297528	        0.1384960407	        0.0000000000	        0.0000000000	        0.0000000000	        0.0000000000	        0.0000000000	        0.0000000000	        0.0000000000	        0.0000000000	        0.0000000000	
        0.1587912834	      -97.2677693990	      678.4719852004	      -14.3780073710	        0.3101235706	        0.0000000000	        0.0593455346	       -1.4768597908	        0.7069916850	        0.0817896698	        0.0000000000	        0.0000000000	        0.0000000000	        0.0000000000	        0.0000000000	        0.0000000000	        0.0000000000	        0.0000000000	        0.0000000000	
        0.1720238904	      -88.0599012584	      655.6774137349	      -14.3196438301	        0.3153920315	        0.0000000000	        0.0590499748	       -1.1557560095	        0.5350240778	        0.0494525503	        0.0000000000	        0.0000000000	        0.0000000000	        0.0000000000	        0.0000000000	        0.0000000000	        0.0000000000	        0.0000000000	        0.0000000000	
        0.1852564973	      -79.8632126274	      635.5375270572	      -14.7964578507	        0.3203227214	        0.0000000000	        0.0586987398	       -0.9938977789	        0.4479083036	        0.0316392781	        0.0000000000	        0.0000000000	        0.0000000000	        0.0000000000	        0.0000000000	        0.0000000000	        0.0000000000	        0.0000000000	        0.0000000000	
        0.1984891043	      -72.1212067219	      618.4939541658	      -15.4792954321	        0.3248610588	        0.0000000000	        0.0583693279	       -0.9273412098	        0.4083869900	        0.0207041847	        0.0000000000	        0.0000000000	        0.0000000000	        0.0000000000	        0.0000000000	        0.0000000000	        0.0000000000	        0.0000000000	        0.0000000000	
        0.2117217112	      -64.6345093267	      604.1634024749	      -16.3879926644	        0.3290900638	        0.0000000000	        0.0580533324	       -0.9285248122	        0.4006267536	        0.0135688775	        0.0000000000	        0.0000000000	        0.0000000000	        0.0000000000	        0.0000000000	        0.0000000000	        0.0000000000	        0.0000000000	        0.0000000000	
        0.2249543182	      -57.6281570530	      591.7199598979	      -17.3347252381	        0.3330084992	        0.0000000000	        0.0577413004	       -1.0007541385	        0.4233939729	        0.0088587464	        0.0000000000	        0.0000000000	        0.0000000000	        0.0000000000	        0.0000000000	        0.0000000000	        0.0000000000	        0.0000000000	        0.0000000000	
        0.2381869251	      -51.3455901076	      581.2303660508	      -18.1405645615	        0.3366237806	        0.0000000000	        0.0574331891	       -1.1354077177	        0.4716770281	        0.0051778215	        0.0000000000	        0.0000000000	        0.0000000000	        0.0000000000	        0.0000000000	        0.0000000000	        0.0000000000	        0.0000000000	        0.0000000000	
        0.2514195321	      -45.6188763845	      571.8657565564	      -18.6918284691	        0.3398891233	        0.0000000000	        0.0571326477	       -1.3126167842	        0.5364204908	        0.0015540361	        0.0000000000	        0.0000000000	        0.0000000000	        0.0000000000	        0.0000000000	        0.0000000000	        0.0000000000	        0.0000000000	        0.0000000000	
        0.2646521390	      -40.3316192258	      563.1103598467	      -19.0750478477	        0.3428031080	        0.0000000000	        0.0568459125	       -1.5030883862	        0.6055428438	       -0.0024771008	        0.0000000000	        0.0000000000	        0.0000000000	        0.0000000000	        0.0000000000	        0.0000000000	        0.0000000000	        0.0000000000	        0.0000000000	
        0.2778847460	      -35.3278651268	      554.7699633552	      -19.6042750838	        0.3453696518	        0.0000000000	        0.0565633042	       -1.6710069487	        0.6650415863	       -0.0063674547	        0.0000000000	        0.0000000000	        0.0000000000	        0.0000000000	        0.0000000000	        0.0000000000	        0.0000000000	        0.0000000000	        0.0000000000	
        0.2911173529	      -30.3609588326	      546.8401025536	      -20.2511609289	        0.3475879490	        0.0000000000	        0.0562835507	       -1.7870399534	        0.7040855034	       -0.0095058862	        0.0000000000	        0.0000000000	        0.0000000000	        0.0000000000	        0.0000000000	        0.0000000000	        0.0000000000	        0.0000000000	        0.0000000000	
        0.3043499599	      -25.1491563334	      539.2699357533	      -20.5710261434	        0.3494884838	        0.0000000000	        0.0560134497	       -1.8552117364	        0.7243699137	       -0.0115977677	        0.0000000000	        0.0000000000	        0.0000000000	        0.0000000000	        0.0000000000	        0.0000000000	        0.0000000000	        0.0000000000	        0.0000000000	
        0.3175825668	      -19.6961990680	      532.8250936409	      -20.6050219276	        0.3511265901	        0.0000000000	        0.0557478781	       -1.9096341114	        0.7390540917	       -0.0131617810	        0.0000000000	        0.0000000000	        0.0000000000	        0.0000000000	        0.0000000000	        0.0000000000	        0.0000000000	        0.0000000000	        0.0000000000	
